<?xml version="1.0" encoding="UTF-8"?>
<svg version="1.1" xmlns="http://www.w3.org/2000/svg" width="256" height="256">
<path d="M0 0 C1.59424805 -0.0309375 1.59424805 -0.0309375 3.22070312 -0.0625 C4.23970703 -0.06765625 5.25871094 -0.0728125 6.30859375 -0.078125 C7.24372803 -0.0874707 8.1788623 -0.09681641 9.14233398 -0.10644531 C12.00736865 0.31552085 12.7085648 1.11580275 14.5625 3.25 C16.83411255 3.82323807 16.83411255 3.82323807 19.25 3.9375 C20.05824219 4.00324219 20.86648437 4.06898437 21.69921875 4.13671875 C22.31410156 4.17410156 22.92898437 4.21148438 23.5625 4.25 C24.2225 2.93 24.8825 1.61 25.5625 0.25 C36.16757633 0.18047695 46.77259841 0.12717696 57.37785625 0.09456348 C62.30236043 0.07891032 67.22670863 0.05767832 72.15112305 0.02368164 C76.90382736 -0.00892412 81.65638169 -0.02685564 86.40918922 -0.03463173 C88.22207818 -0.04017304 90.03495897 -0.05099388 91.84778404 -0.06719017 C94.38787932 -0.0889807 96.92735553 -0.09196626 99.4675293 -0.09057617 C100.21631348 -0.101362 100.96509766 -0.11214783 101.73657227 -0.1232605 C107.19050536 -0.09098311 110.24063571 1.25983061 114.3125 4.75 C116.80616521 7.74239826 116.67316032 10.72915538 116.625 14.4375 C116.61597656 15.33855469 116.60695312 16.23960938 116.59765625 17.16796875 C116.58025391 18.19857422 116.58025391 18.19857422 116.5625 19.25 C117.28695312 19.19199219 118.01140625 19.13398437 118.7578125 19.07421875 C127.63961643 18.65973457 127.63961643 18.65973457 131.1875 21.625 C134.89872333 25.72687842 134.76117417 28.78109413 134.87890625 34.1015625 C134.89968735 34.87559418 134.92046844 35.64962585 134.94187927 36.44711304 C135.00733448 38.92298392 135.06624087 41.39896202 135.125 43.875 C135.16818907 45.55209448 135.21180348 47.22917807 135.25585938 48.90625 C135.36301171 53.02072308 135.46429045 57.13530414 135.5625 61.25 C136.07111572 60.9418335 136.57973145 60.63366699 137.10375977 60.31616211 C139.43289698 58.92005499 141.77828037 57.55382857 144.125 56.1875 C144.92486328 55.70216797 145.72472656 55.21683594 146.54882812 54.71679688 C150.56726627 52.40414472 152.80344013 51.2291016 157.53515625 51.359375 C160.55472942 52.24771395 161.83562281 52.65968422 163.5625 55.25 C164.8013947 59.36977643 164.71017843 63.43681128 164.70776367 67.70288086 C164.71112228 68.55374771 164.7144809 69.40461456 164.71794128 70.28126526 C164.72743615 73.09247296 164.72939358 75.90362102 164.73046875 78.71484375 C164.73368205 80.67013066 164.73704618 82.62541733 164.74055481 84.58070374 C164.7465422 88.67872678 164.74839508 92.77672875 164.74780273 96.87475586 C164.74770107 102.12498164 164.76135983 107.37507233 164.77857494 112.62526608 C164.78969418 116.66330079 164.79172197 120.70130282 164.79119301 124.73935127 C164.79237299 126.67502877 164.79679575 128.61070712 164.80452538 130.54636955 C164.81432481 133.25358422 164.81144751 135.9605052 164.80541992 138.66772461 C164.81103943 139.46632904 164.81665894 140.26493347 164.82244873 141.08773804 C164.79331538 146.23818477 164.48076969 150.26322068 160.8125 154.0625 C157.7117432 155.69901054 156.07623593 155.64800899 152.5625 155.25 C149.44355581 153.83732328 146.58510765 152.06714378 143.6875 150.25 C142.90375 149.77304688 142.12 149.29609375 141.3125 148.8046875 C139.38828495 147.63138564 137.47237271 146.44645474 135.5625 145.25 C135.55885437 145.86530075 135.55520874 146.4806015 135.55145264 147.11454773 C135.50962022 153.5226306 135.44026924 159.92999772 135.35498047 166.33764648 C135.32676665 168.72852416 135.30555421 171.11949519 135.29150391 173.51049805 C135.2700809 176.94889125 135.22343134 180.38616159 135.171875 183.82421875 C135.17064636 184.89210129 135.16941772 185.95998383 135.16815186 187.06022644 C135.02242475 194.45543038 135.02242475 194.45543038 132.77441406 198.33911133 C129.33674266 201.30894069 126.71200412 202.50382061 122.16113281 202.47705078 C120.8702475 202.47682419 120.8702475 202.47682419 119.55328369 202.47659302 C118.63335632 202.46627045 117.71342896 202.45594788 116.765625 202.4453125 C115.81685486 202.4424826 114.86808472 202.43965271 113.89056396 202.43673706 C110.86441361 202.42555448 107.8385607 202.4004533 104.8125 202.375 C102.75911886 202.36496772 100.70573308 202.3558423 98.65234375 202.34765625 C93.62228146 202.32562141 88.59244114 202.29110462 83.5625 202.25 C82.9025 200.93 82.2425 199.61 81.5625 198.25 C80.12388706 198.33746284 78.68652492 198.44565348 77.25 198.5625 C76.04923828 198.64951172 76.04923828 198.64951172 74.82421875 198.73828125 C72.48845588 199.01173392 72.48845588 199.01173392 71.41841125 200.75772095 C68.48082214 203.11974267 65.21604272 202.66682974 61.60620117 202.63818359 C60.79610092 202.64344055 59.98600067 202.64869751 59.15135193 202.65411377 C56.46919554 202.66733339 53.78763135 202.65856642 51.10546875 202.6484375 C49.24082831 202.65045827 47.37618864 202.65336973 45.5115509 202.65713501 C41.59999074 202.66156151 37.68863592 202.65511904 33.77709961 202.64111328 C28.7700898 202.62405674 23.76356366 202.63383807 18.75657177 202.65183067 C14.90375653 202.66269008 11.05105521 202.65921166 7.19823647 202.6514473 C5.35270442 202.6494494 3.50716194 202.65189011 1.66164207 202.65888596 C-0.92352138 202.66653194 -3.50791148 202.65485088 -6.09301758 202.63818359 C-6.85219482 202.64425629 -7.61137207 202.65032898 -8.39355469 202.65658569 C-13.14216052 202.60006308 -16.41441707 201.7855197 -20.4375 199.25 C-24.11674448 194.22169921 -23.75570022 189.2133079 -23.4375 183.25 C-24.52417969 183.33701172 -24.52417969 183.33701172 -25.6328125 183.42578125 C-34.51461643 183.84026543 -34.51461643 183.84026543 -38.0625 180.875 C-41.37717049 177.21141682 -41.5819812 175.46165423 -41.74617004 170.61721802 C-41.78800919 169.41805252 -41.82984833 168.21888702 -41.87295532 166.98338318 C-41.91408025 165.64664686 -41.95487088 164.30990022 -41.99536133 162.97314453 C-42.04090941 161.57002161 -42.08648816 160.16689969 -42.13209534 158.76377869 C-42.5380889 145.85763664 -42.77763942 132.94812377 -42.9703722 120.03721809 C-43.10291406 111.37324631 -43.2878465 102.71697035 -43.60473633 94.05761719 C-45.86959931 30.9707572 -45.86959931 30.9707572 -33.29616451 16.16443443 C-23.50994203 5.87803145 -14.17330509 0.06851144 0 0 Z " fill="#DCF3FA" transform="translate(41.4375,26.75)"/>
<path d="M0 0 C1.59424805 -0.0309375 1.59424805 -0.0309375 3.22070312 -0.0625 C4.23970703 -0.06765625 5.25871094 -0.0728125 6.30859375 -0.078125 C7.24372803 -0.0874707 8.1788623 -0.09681641 9.14233398 -0.10644531 C11.5625 0.25 11.5625 0.25 13.40258789 1.63769531 C14.5625 3.25 14.5625 3.25 14.375 5.375 C13.5625 7.25 13.5625 7.25 11.5625 8.25 C10.18701844 8.33308638 8.80764204 8.35736016 7.4296875 8.34765625 C6.62402344 8.34443359 5.81835938 8.34121094 4.98828125 8.33789062 C4.14652344 8.32951172 3.30476563 8.32113281 2.4375 8.3125 C1.16326172 8.30573242 1.16326172 8.30573242 -0.13671875 8.29882812 C-2.23700909 8.28702874 -4.3372633 8.26909306 -6.4375 8.25 C-6.41131592 8.85473145 -6.38513184 9.45946289 -6.3581543 10.08251953 C-6.25364184 12.84641097 -6.18900727 15.609886 -6.125 18.375 C-6.08310547 19.32632813 -6.04121094 20.27765625 -5.99804688 21.2578125 C-5.85987092 29.21674751 -5.85987092 29.21674751 -8.76953125 32.8671875 C-16.09703589 39.41151815 -21.84602997 36.25 -33.4375 36.25 C-33.1075 81.79 -32.7775 127.33 -32.4375 174.25 C-7.75683754 174.27911488 -7.75683754 174.27911488 16.92382812 174.29882812 C26.98250842 174.3047713 37.04118036 174.31177348 47.09985352 174.32543945 C54.42417932 174.33538575 61.74849837 174.3418533 69.07283074 174.34408849 C72.95340787 174.34539569 76.8339657 174.34848212 80.71453667 174.35573006 C84.36289557 174.36248942 88.01122711 174.36461713 91.65959167 174.36310768 C93.64538419 174.36351637 95.6311737 174.368912 97.61695862 174.37442017 C99.37337173 174.37235817 99.37337173 174.37235817 101.16526794 174.37025452 C102.18937995 174.37117631 103.21349195 174.3720981 104.26863766 174.37304783 C106.52714094 174.5080975 106.52714094 174.5080975 107.5625 173.25 C107.7228556 170.22192956 107.82210448 167.21414546 107.87890625 164.18359375 C107.9100779 162.82065941 107.9100779 162.82065941 107.94187927 161.43019104 C108.00747672 158.51604054 108.0663068 155.60179696 108.125 152.6875 C108.16817554 150.71678709 108.21178951 148.74608374 108.25585938 146.77539062 C108.36316843 141.93369012 108.46440675 137.09189563 108.5625 132.25 C107.82088623 132.26047363 107.07927246 132.27094727 106.31518555 132.28173828 C102.96015807 132.32327196 99.60518467 132.34931789 96.25 132.375 C95.08275391 132.39175781 93.91550781 132.40851563 92.71289062 132.42578125 C91.03549805 132.43544922 91.03549805 132.43544922 89.32421875 132.4453125 C87.7767395 132.46102295 87.7767395 132.46102295 86.19799805 132.47705078 C83.5625 132.25 83.5625 132.25 80.5625 130.25 C77.70479544 130.04674842 74.94244964 129.95946032 72.08374023 129.96289062 C71.21844696 129.95605759 70.35315369 129.94922455 69.4616394 129.94218445 C67.5824538 129.92859195 65.70323115 129.91954156 63.82400322 129.91447449 C60.85324508 129.90620029 57.88279654 129.88571049 54.91212463 129.86193848 C47.53547666 129.80546462 40.15875368 129.7702716 32.78198242 129.73431396 C26.54777702 129.70312396 20.31372195 129.6639776 14.07963753 129.61405945 C11.14693864 129.59392742 8.21435469 129.58565927 5.28160095 129.57775879 C3.49168473 129.56479205 1.70177239 129.55127258 -0.08813477 129.53710938 C-0.90844681 129.53809128 -1.72875885 129.53907318 -2.57392883 129.54008484 C-8.20981074 129.47768926 -8.20981074 129.47768926 -10.4375 127.25 C-9.88194444 122.69444444 -9.88194444 122.69444444 -8.4375 121.25 C-5.79011911 121.15488734 -3.16890999 121.12444365 -0.52124023 121.13647461 C0.30795929 121.13632858 1.13715881 121.13618256 1.9914856 121.1360321 C4.74565198 121.13673149 7.49975161 121.14452507 10.25390625 121.15234375 C12.15819766 121.15420784 14.06248955 121.15563178 15.96678162 121.15663147 C20.98917963 121.16045737 26.01154892 121.17028827 31.03393555 121.18133545 C36.1547812 121.19154802 41.27563148 121.19612876 46.39648438 121.20117188 C56.45183557 121.21191047 66.5071654 121.22898776 76.5625 121.25 C76.5625 116.63 76.5625 112.01 76.5625 107.25 C73.76458984 107.26740234 73.76458984 107.26740234 70.91015625 107.28515625 C68.48177183 107.29453225 66.05338633 107.30363265 63.625 107.3125 C62.39330078 107.32087891 61.16160156 107.32925781 59.89257812 107.33789062 C58.72275391 107.34111328 57.55292969 107.34433594 56.34765625 107.34765625 C54.72162476 107.35551147 54.72162476 107.35551147 53.06274414 107.36352539 C50.5625 107.25 50.5625 107.25 49.5625 106.25 C49.4375 103.75 49.4375 103.75 49.5625 101.25 C50.5625 100.25 50.5625 100.25 53.06274414 100.13647461 C54.14676514 100.14171143 55.23078613 100.14694824 56.34765625 100.15234375 C58.10239258 100.15717773 58.10239258 100.15717773 59.89257812 100.16210938 C61.12427734 100.17048828 62.35597656 100.17886719 63.625 100.1875 C65.47834961 100.19426758 65.47834961 100.19426758 67.36914062 100.20117188 C70.43361413 100.21300382 73.49806293 100.23093992 76.5625 100.25 C76.5625 95.63 76.5625 91.01 76.5625 86.25 C74.78101562 86.27320312 72.99953125 86.29640625 71.1640625 86.3203125 C68.83854584 86.33906667 66.51302467 86.35726724 64.1875 86.375 C63.011875 86.39175781 61.83625 86.40851563 60.625 86.42578125 C58.94277344 86.43544922 58.94277344 86.43544922 57.2265625 86.4453125 C56.18967285 86.45578613 55.1527832 86.46625977 54.08447266 86.47705078 C51.5625 86.25 51.5625 86.25 49.5625 84.25 C50.11805556 79.69444444 50.11805556 79.69444444 51.5625 78.25 C53.57566335 78.12809303 55.59276501 78.07024129 57.609375 78.0390625 C58.846875 78.01070313 60.084375 77.98234375 61.359375 77.953125 C63.97902917 77.90135318 66.59884104 77.85699123 69.21875 77.8203125 C70.46140625 77.789375 71.7040625 77.7584375 72.984375 77.7265625 C74.69512207 77.6968335 74.69512207 77.6968335 76.44042969 77.66650391 C79.58079192 77.47334892 79.58079192 77.47334892 81.89898682 75.74227905 C84.98957434 74.01072426 86.78671572 73.90065587 90.30078125 73.95703125 C91.36748047 73.96669922 92.43417969 73.97636719 93.53320312 73.98632812 C94.63599609 74.01146484 95.73878906 74.03660156 96.875 74.0625 C97.99712891 74.07603516 99.11925781 74.08957031 100.27539062 74.10351562 C103.03825229 74.1387862 105.80012829 74.18807765 108.5625 74.25 C108.45515043 65.92262036 108.3425485 57.59533569 108.22316074 49.26812077 C108.16789645 45.4018399 108.114471 41.53555152 108.06518555 37.66918945 C108.0175935 33.94089913 107.96525285 30.21270348 107.90955925 26.48452568 C107.88911222 25.05913067 107.87040309 23.63370968 107.85342598 22.20826912 C107.82943404 20.21829459 107.79879864 18.22840345 107.76782227 16.23852539 C107.75227798 15.10379288 107.7367337 13.96906036 107.72071838 12.79994202 C107.84899473 10.31584162 107.84899473 10.31584162 106.5625 9.25 C104.04832561 9.13561686 101.56048703 9.08517279 99.04516602 9.07641602 C98.25819336 9.069729 97.4712207 9.06304199 96.66040039 9.05615234 C94.9459598 9.04206956 93.23150009 9.03018588 91.51703072 9.02020454 C88.80693249 9.00384908 86.09697611 8.98061439 83.38694763 8.95530701 C75.67983008 8.88437578 67.97265457 8.82434143 60.26538086 8.77319336 C55.55684236 8.7414626 50.84846608 8.70020199 46.14005852 8.65299797 C44.34149014 8.63694158 42.54288434 8.62463692 40.7442646 8.61609077 C38.23241766 8.60398357 35.72095449 8.5798539 33.20922852 8.55297852 C32.08625618 8.5520948 32.08625618 8.5520948 30.94059753 8.55119324 C25.79039562 8.47789562 25.79039562 8.47789562 23.5625 6.25 C24.11805556 1.69444444 24.11805556 1.69444444 25.5625 0.25 C28.09170179 0.13898588 30.59385466 0.09261184 33.12402344 0.08886719 C34.31188446 0.08141983 34.31188446 0.08141983 35.52374268 0.07382202 C38.15646215 0.05915905 40.78912132 0.05239053 43.421875 0.046875 C45.24692792 0.04112565 47.07198082 0.03536789 48.89703369 0.02960205 C52.73051231 0.01907941 56.56396989 0.01324545 60.39746094 0.00976562 C65.3081751 0.00428718 70.2186111 -0.01972156 75.12923813 -0.04820633 C78.90220955 -0.06684002 82.6751142 -0.07203876 86.44812775 -0.07357025 C88.25821702 -0.07659715 90.06830511 -0.08462693 91.8783493 -0.09775543 C94.41357969 -0.11482653 96.94813375 -0.11293288 99.48339844 -0.10644531 C100.23061157 -0.1156601 100.97782471 -0.12487488 101.74768066 -0.1343689 C107.19191612 -0.09076771 110.24714077 1.26540637 114.3125 4.75 C116.80616521 7.74239826 116.67316032 10.72915538 116.625 14.4375 C116.61597656 15.33855469 116.60695312 16.23960938 116.59765625 17.16796875 C116.58025391 18.19857422 116.58025391 18.19857422 116.5625 19.25 C117.28695312 19.19199219 118.01140625 19.13398437 118.7578125 19.07421875 C127.63961643 18.65973457 127.63961643 18.65973457 131.1875 21.625 C134.89872333 25.72687842 134.76117417 28.78109413 134.87890625 34.1015625 C134.89968735 34.87559418 134.92046844 35.64962585 134.94187927 36.44711304 C135.00733448 38.92298392 135.06624087 41.39896202 135.125 43.875 C135.16818907 45.55209448 135.21180348 47.22917807 135.25585938 48.90625 C135.36301171 53.02072308 135.46429045 57.13530414 135.5625 61.25 C136.07111572 60.9418335 136.57973145 60.63366699 137.10375977 60.31616211 C139.43289698 58.92005499 141.77828037 57.55382857 144.125 56.1875 C144.92486328 55.70216797 145.72472656 55.21683594 146.54882812 54.71679688 C150.56726627 52.40414472 152.80344013 51.2291016 157.53515625 51.359375 C160.55472942 52.24771395 161.83562281 52.65968422 163.5625 55.25 C164.8013947 59.36977643 164.71017843 63.43681128 164.70776367 67.70288086 C164.71112228 68.55374771 164.7144809 69.40461456 164.71794128 70.28126526 C164.72743615 73.09247296 164.72939358 75.90362102 164.73046875 78.71484375 C164.73368205 80.67013066 164.73704618 82.62541733 164.74055481 84.58070374 C164.7465422 88.67872678 164.74839508 92.77672875 164.74780273 96.87475586 C164.74770107 102.12498164 164.76135983 107.37507233 164.77857494 112.62526608 C164.78969418 116.66330079 164.79172197 120.70130282 164.79119301 124.73935127 C164.79237299 126.67502877 164.79679575 128.61070712 164.80452538 130.54636955 C164.81432481 133.25358422 164.81144751 135.9605052 164.80541992 138.66772461 C164.81103943 139.46632904 164.81665894 140.26493347 164.82244873 141.08773804 C164.79331538 146.23818477 164.48076969 150.26322068 160.8125 154.0625 C157.7117432 155.69901054 156.07623593 155.64800899 152.5625 155.25 C149.44355581 153.83732328 146.58510765 152.06714378 143.6875 150.25 C142.90375 149.77304688 142.12 149.29609375 141.3125 148.8046875 C139.38828495 147.63138564 137.47237271 146.44645474 135.5625 145.25 C135.55885437 145.86530075 135.55520874 146.4806015 135.55145264 147.11454773 C135.50962022 153.5226306 135.44026924 159.92999772 135.35498047 166.33764648 C135.32676665 168.72852416 135.30555421 171.11949519 135.29150391 173.51049805 C135.2700809 176.94889125 135.22343134 180.38616159 135.171875 183.82421875 C135.17064636 184.89210129 135.16941772 185.95998383 135.16815186 187.06022644 C135.02242475 194.45543038 135.02242475 194.45543038 132.77441406 198.33911133 C129.33674266 201.30894069 126.71200412 202.50382061 122.16113281 202.47705078 C120.8702475 202.47682419 120.8702475 202.47682419 119.55328369 202.47659302 C118.63335632 202.46627045 117.71342896 202.45594788 116.765625 202.4453125 C115.81685486 202.4424826 114.86808472 202.43965271 113.89056396 202.43673706 C110.86441361 202.42555448 107.8385607 202.4004533 104.8125 202.375 C102.75911886 202.36496772 100.70573308 202.3558423 98.65234375 202.34765625 C93.62228146 202.32562141 88.59244114 202.29110462 83.5625 202.25 C82.9025 200.93 82.2425 199.61 81.5625 198.25 C80.12388706 198.33746284 78.68652492 198.44565348 77.25 198.5625 C76.04923828 198.64951172 76.04923828 198.64951172 74.82421875 198.73828125 C72.48845588 199.01173392 72.48845588 199.01173392 71.41841125 200.75772095 C68.48082214 203.11974267 65.21604272 202.66682974 61.60620117 202.63818359 C60.79610092 202.64344055 59.98600067 202.64869751 59.15135193 202.65411377 C56.46919554 202.66733339 53.78763135 202.65856642 51.10546875 202.6484375 C49.24082831 202.65045827 47.37618864 202.65336973 45.5115509 202.65713501 C41.59999074 202.66156151 37.68863592 202.65511904 33.77709961 202.64111328 C28.7700898 202.62405674 23.76356366 202.63383807 18.75657177 202.65183067 C14.90375653 202.66269008 11.05105521 202.65921166 7.19823647 202.6514473 C5.35270442 202.6494494 3.50716194 202.65189011 1.66164207 202.65888596 C-0.92352138 202.66653194 -3.50791148 202.65485088 -6.09301758 202.63818359 C-6.85219482 202.64425629 -7.61137207 202.65032898 -8.39355469 202.65658569 C-13.14216052 202.60006308 -16.41441707 201.7855197 -20.4375 199.25 C-24.11674448 194.22169921 -23.75570022 189.2133079 -23.4375 183.25 C-24.52417969 183.33701172 -24.52417969 183.33701172 -25.6328125 183.42578125 C-34.51461643 183.84026543 -34.51461643 183.84026543 -38.0625 180.875 C-41.37717049 177.21141682 -41.5819812 175.46165423 -41.74617004 170.61721802 C-41.78800919 169.41805252 -41.82984833 168.21888702 -41.87295532 166.98338318 C-41.91408025 165.64664686 -41.95487088 164.30990022 -41.99536133 162.97314453 C-42.04090941 161.57002161 -42.08648816 160.16689969 -42.13209534 158.76377869 C-42.5380889 145.85763664 -42.77763942 132.94812377 -42.9703722 120.03721809 C-43.10291406 111.37324631 -43.2878465 102.71697035 -43.60473633 94.05761719 C-45.86959931 30.9707572 -45.86959931 30.9707572 -33.29616451 16.16443443 C-23.50994203 5.87803145 -14.17330509 0.06851144 0 0 Z " fill="#060605" transform="translate(41.4375,26.75)"/>
<path d="M0 0 C0.66 0 1.32 0 2 0 C2 29.04 2 58.08 2 88 C-2.11479277 86.35408289 -5.64502361 84.59717848 -9.47265625 82.41015625 C-10.07758408 82.06496445 -10.6825119 81.71977264 -11.30577087 81.36412048 C-12.57819924 80.63697603 -13.84971528 79.90823301 -15.12036133 79.17797852 C-17.05753676 78.06535067 -18.99824657 76.95909208 -20.93945312 75.85351562 C-22.17990372 75.14360684 -23.42014525 74.43333261 -24.66015625 73.72265625 C-25.78043213 73.08078369 -26.90070801 72.43891113 -28.05493164 71.77758789 C-29.0268042 71.19098389 -29.99867676 70.60437988 -31 70 C-32.16728638 69.3205835 -32.16728638 69.3205835 -33.3581543 68.62744141 C-35.73244206 66.27398382 -35.54247159 64.53327413 -35.609375 61.23828125 C-35.64160156 60.12001953 -35.67382812 59.00175781 -35.70703125 57.84960938 C-35.72121094 56.68236328 -35.73539063 55.51511719 -35.75 54.3125 C-35.77964844 53.13365234 -35.80929688 51.95480469 -35.83984375 50.74023438 C-35.91061656 47.82675368 -35.96327725 44.91407664 -36 42 C-37.94603274 41.40929986 -37.94603274 41.40929986 -40 41 C-41.71443219 42.71443219 -41.23052967 45.00445241 -41.31640625 47.34765625 C-41.35830078 48.42724609 -41.40019531 49.50683594 -41.44335938 50.61914062 C-41.48267578 51.75544922 -41.52199219 52.89175781 -41.5625 54.0625 C-41.60568359 55.20267578 -41.64886719 56.34285156 -41.69335938 57.51757812 C-41.79982839 60.34492195 -41.90184207 63.17235738 -42 66 C-46.29161047 66.05783842 -50.58312145 66.0935412 -54.875 66.125 C-56.09832031 66.14175781 -57.32164062 66.15851563 -58.58203125 66.17578125 C-60.33193359 66.18544922 -60.33193359 66.18544922 -62.1171875 66.1953125 C-63.19597168 66.20578613 -64.27475586 66.21625977 -65.38623047 66.22705078 C-68 66 -68 66 -70 64 C-70.18776167 60.99864387 -70.25550182 58.09112854 -70.23046875 55.08984375 C-70.23001053 54.20720352 -70.22955231 53.32456329 -70.2290802 52.41517639 C-70.22605687 50.54817359 -70.21816817 48.68117333 -70.20581055 46.81420898 C-70.18755226 43.94571061 -70.18530084 41.07753479 -70.18554688 38.20898438 C-70.18063188 36.39843469 -70.17480364 34.58788721 -70.16796875 32.77734375 C-70.16685593 31.91382797 -70.1657431 31.05031219 -70.16459656 30.16062927 C-70.11604615 24.11604615 -70.11604615 24.11604615 -69 23 C-67.00035018 22.91241997 -64.9976389 22.89303424 -62.99609375 22.90234375 C-61.78115234 22.90556641 -60.56621094 22.90878906 -59.31445312 22.91210938 C-58.03505859 22.92048828 -56.75566406 22.92886719 -55.4375 22.9375 C-54.15423828 22.94201172 -52.87097656 22.94652344 -51.54882812 22.95117188 C-48.36583978 22.96300455 -45.18294238 22.97948932 -42 23 C-41.67 24.98 -41.34 26.96 -41 29 C-39.35 29 -37.7 29 -36 29 C-35.96648437 27.76894531 -35.93296875 26.53789063 -35.8984375 25.26953125 C-35.43239422 21.65332168 -35.20786418 21.18120725 -32.2890625 18.63671875 C-31.0831313 17.95878257 -29.86016316 17.31058868 -28.625 16.6875 C-27.27074286 15.94157048 -25.91658106 15.19546786 -24.5625 14.44921875 C-23.83289063 14.06040527 -23.10328125 13.6715918 -22.3515625 13.27099609 C-18.05241641 10.94735048 -13.84810413 8.45820687 -9.625 6 C-8.78662598 5.51877686 -7.94825195 5.03755371 -7.08447266 4.54174805 C-6.3063623 4.09484619 -5.52825195 3.64794434 -4.7265625 3.1875 C-4.03127441 2.78917969 -3.33598633 2.39085938 -2.61962891 1.98046875 C-1.02149133 1.10106294 -1.02149133 1.10106294 0 0 Z " fill="#B4ACB5" transform="translate(196,86)"/>
<path d="M0 0 C3.7910119 1.44950455 7.3874638 3.15172566 11 5 C11.05057791 12.65377999 11.08568184 20.30751713 11.10986328 27.96142578 C11.11994064 30.56691091 11.1336027 33.17238469 11.15087891 35.77783203 C11.17505102 39.51597899 11.1864656 43.25397685 11.1953125 46.9921875 C11.20563507 48.16304901 11.21595764 49.33391052 11.22659302 50.54025269 C11.22674408 51.62122223 11.22689514 52.70219177 11.22705078 53.81591797 C11.231492 54.77078094 11.23593323 55.72564392 11.24050903 56.70944214 C11 59 11 59 9 61 C5.94163613 61.2095364 2.96650161 61.30115355 -0.09375 61.30859375 C-1.94661782 61.33374678 -3.79948233 61.35914491 -5.65234375 61.38476562 C-8.58218583 61.41356679 -11.5119705 61.43757649 -14.44189453 61.45629883 C-17.26364682 61.47787331 -20.08472774 61.51729988 -22.90625 61.55859375 C-24.22659241 61.55876747 -24.22659241 61.55876747 -25.5736084 61.5589447 C-28.29492754 61.56881866 -28.29492754 61.56881866 -32 62 C-32.66 62.99 -33.32 63.98 -34 65 C-36.3828125 65.29296875 -36.3828125 65.29296875 -39.125 65.1875 C-40.03507812 65.16042969 -40.94515625 65.13335937 -41.8828125 65.10546875 C-42.58148438 65.07066406 -43.28015625 65.03585938 -44 65 C-44 64.01 -44 63.02 -44 62 C-45.59066788 61.98786972 -45.59066788 61.98786972 -47.21347046 61.97549438 C-57.19050198 61.89812463 -67.16739558 61.81040888 -77.14424706 61.71247292 C-82.27387139 61.66245388 -87.40347456 61.6161245 -92.53320312 61.578125 C-97.48050156 61.54134284 -102.4276253 61.49500251 -107.37477493 61.44193649 C-109.26544771 61.42335484 -111.15615798 61.40826093 -113.04688644 61.39665604 C-115.68817924 61.37985784 -118.32906864 61.3508391 -120.97021484 61.31884766 C-121.75783707 61.31668747 -122.54545929 61.31452728 -123.35694885 61.31230164 C-128.77189568 61.22810432 -128.77189568 61.22810432 -131 59 C-131.1953125 56.8359375 -131.1953125 56.8359375 -131.125 54.375 C-131.09792969 53.14910156 -131.09792969 53.14910156 -131.0703125 51.8984375 C-131.04710937 51.27195313 -131.02390625 50.64546875 -131 50 C-130.06516313 49.99641747 -130.06516313 49.99641747 -129.11144066 49.99276257 C-113.93764111 49.9335921 -98.764019 49.85802905 -83.59039879 49.76428509 C-76.25250053 49.71934503 -68.91465061 49.6799263 -61.57666016 49.65356445 C-55.17986569 49.6305698 -48.78322443 49.59715552 -42.3865515 49.55129844 C-39.00043895 49.52738579 -35.61447795 49.50864428 -32.22828293 49.50238609 C-28.44541578 49.49277411 -24.66310235 49.46474783 -20.88037109 49.43237305 C-19.76115265 49.43380814 -18.6419342 49.43524323 -17.48880005 49.4367218 C-9.80732248 49.35366471 -9.80732248 49.35366471 -3 46 C-1.07008779 43.26814174 -0.74079993 40.99092933 -0.68115234 37.69042969 C-0.66128265 36.84986023 -0.64141296 36.00929077 -0.62094116 35.14324951 C-0.60938995 34.24519592 -0.59783875 33.34714233 -0.5859375 32.421875 C-0.56657135 31.4953009 -0.5472052 30.56872681 -0.5272522 29.61407471 C-0.46755233 26.65947629 -0.42110932 23.70483871 -0.375 20.75 C-0.3368114 18.74477483 -0.29775915 16.73956591 -0.2578125 14.734375 C-0.1618586 9.82304889 -0.07779197 4.911646 0 0 Z " fill="#FCDE75" transform="translate(157,160)"/>
<path d="M0 0 C1.12591553 0.00523682 2.25183105 0.01047363 3.41186523 0.01586914 C4.62680664 0.0190918 5.84174805 0.02231445 7.09350586 0.02563477 C8.37290039 0.03401367 9.65229492 0.04239258 10.97045898 0.05102539 C12.2537207 0.05553711 13.53698242 0.06004883 14.85913086 0.06469727 C18.04211921 0.07652994 21.22501661 0.09301471 24.40795898 0.11352539 C24.53041992 1.07516602 24.65288086 2.03680664 24.77905273 3.02758789 C25.05372016 6.22718094 25.05372016 6.22718094 27.47045898 7.48852539 C28.10983398 7.69477539 28.74920898 7.90102539 29.40795898 8.11352539 C28.74795898 8.11352539 28.08795898 8.11352539 27.40795898 8.11352539 C27.43116211 8.74000977 27.45436523 9.36649414 27.47827148 10.01196289 C27.5053418 11.23786133 27.5053418 11.23786133 27.53295898 12.48852539 C27.55616211 13.30063477 27.57936523 14.11274414 27.60327148 14.94946289 C27.40795898 17.11352539 27.40795898 17.11352539 25.40795898 19.11352539 C25.03659984 21.63390503 25.03659984 21.63390503 24.99389648 24.55883789 C24.95522461 25.63520508 24.91655273 26.71157227 24.87670898 27.82055664 C24.84577148 28.94848633 24.81483398 30.07641602 24.78295898 31.23852539 C24.74428711 32.37418945 24.70561523 33.50985352 24.66577148 34.67993164 C24.57128297 37.49096495 24.48572357 40.30198772 24.40795898 43.11352539 C20.11634851 43.17136381 15.82483754 43.20706659 11.53295898 43.23852539 C10.30963867 43.2552832 9.08631836 43.27204102 7.82592773 43.28930664 C6.07602539 43.29897461 6.07602539 43.29897461 4.29077148 43.30883789 C3.2119873 43.31931152 2.13320312 43.32978516 1.02172852 43.34057617 C-1.59204102 43.11352539 -1.59204102 43.11352539 -3.59204102 41.11352539 C-3.77980268 38.11216926 -3.84754284 35.20465393 -3.82250977 32.20336914 C-3.82205154 31.32072891 -3.82159332 30.43808868 -3.82112122 29.52870178 C-3.81809789 27.66169898 -3.81020919 25.79469873 -3.79785156 23.92773438 C-3.77959328 21.059236 -3.77734185 18.19106018 -3.77758789 15.32250977 C-3.7726729 13.51196008 -3.76684466 11.7014126 -3.76000977 9.89086914 C-3.75889694 9.02735336 -3.75778412 8.16383759 -3.75663757 7.27415466 C-3.69951262 0.16203008 -3.69951262 0.16203008 0 0 Z " fill="#A69AA6" transform="translate(129.592041015625,108.886474609375)"/>
<path d="M0 0 C10.39614413 -0.04627317 20.7922639 -0.08184359 31.18848991 -0.10362434 C36.01550805 -0.11407626 40.84245591 -0.12826104 45.66943359 -0.15087891 C50.32485778 -0.17255722 54.98021422 -0.18455801 59.63568497 -0.18975449 C61.41475619 -0.19345928 63.19382356 -0.20069348 64.97286606 -0.21146011 C67.45839294 -0.22590854 69.94363733 -0.22798075 72.42919922 -0.22705078 C73.54050201 -0.23783661 73.54050201 -0.23783661 74.67425537 -0.24884033 C79.77189568 -0.22810432 79.77189568 -0.22810432 82 2 C82.24050903 4.67019653 82.24050903 4.67019653 82.22705078 8.10205078 C82.22689972 9.38322784 82.22674866 10.66440491 82.22659302 11.98440552 C82.21637895 13.38804274 82.20594695 14.7916784 82.1953125 16.1953125 C82.19158291 17.62734785 82.18873569 19.05938575 82.18673706 20.49142456 C82.17909627 24.26278717 82.15944408 28.03399604 82.1373291 31.80529785 C82.11688019 35.65272949 82.1077374 39.50018594 82.09765625 43.34765625 C82.07619848 50.89851575 82.04101286 58.44921676 82 66 C76.39 66 70.78 66 65 66 C64.67 44.88 64.34 23.76 64 2 C32.32 1.505 32.32 1.505 0 1 C0 0.67 0 0.34 0 0 Z " fill="#C4EAF8" transform="translate(68,35)"/>
<path d="M0 0 C10.6242449 0.13659743 19.12417672 4.87930979 26.53125 12.1953125 C35.46375528 21.84696016 37.11596136 30.91866649 36.8984375 43.75 C36.49337519 53.51962157 32.45850625 61.39796404 25.625 68.3125 C17.03141906 75.46849305 8.14448862 78.82061501 -3.00390625 78.55078125 C-5.375 78.3125 -5.375 78.3125 -6.375 77.3125 C-6.5625 74.875 -6.5625 74.875 -6.375 72.3125 C-3.67653011 69.61403011 -1.5555001 69.69238998 2.1875 69.0625 C11.54972114 67.13639309 17.97467528 63.39262814 23.40625 55.44140625 C27.74665256 47.85961331 29.01284632 39.99718126 26.93359375 31.48046875 C24.01068959 22.54054012 19.65792812 16.73503511 11.2734375 12.37109375 C7.08374534 10.69645278 2.77006404 9.83138355 -1.65234375 8.98828125 C-4.375 8.3125 -4.375 8.3125 -6.375 6.3125 C-5.73936967 1.10033127 -5.17486928 0.15508283 0 0 Z " fill="#000000" transform="translate(219.375,90.6875)"/>
<path d="M0 0 C0.89432739 -0.00630432 1.78865479 -0.01260864 2.71008301 -0.019104 C4.16166809 -0.01303131 4.16166809 -0.01303131 5.64257812 -0.00683594 C6.6338269 -0.00874939 7.62507568 -0.01066284 8.6463623 -0.01263428 C10.7445501 -0.01399679 12.84274631 -0.01029576 14.94091797 -0.00195312 C18.16067358 0.00874535 21.37987121 -0.0018463 24.59960938 -0.01464844 C26.63476686 -0.01332685 28.669924 -0.01076449 30.70507812 -0.00683594 C31.67280151 -0.0108844 32.6405249 -0.01493286 33.63757324 -0.019104 C34.53190063 -0.01279968 35.42622803 -0.00649536 36.34765625 0 C37.13660278 0.00159119 37.92554932 0.00318237 38.73840332 0.00482178 C40.67382812 0.25878906 40.67382812 0.25878906 42.67382812 2.25878906 C42.93945312 4.79003906 42.93945312 4.79003906 42.92382812 7.75878906 C42.9315625 9.22832031 42.9315625 9.22832031 42.93945312 10.72753906 C42.67382812 13.25878906 42.67382812 13.25878906 40.67382812 15.25878906 C36.11827257 14.70323351 36.11827257 14.70323351 34.67382812 13.25878906 C34.67382812 11.27878906 34.67382812 9.29878906 34.67382812 7.25878906 C30.38382813 7.25878906 26.09382813 7.25878906 21.67382812 7.25878906 C21.67382812 19.13878906 21.67382812 31.01878906 21.67382812 43.25878906 C23.98382813 43.25878906 26.29382812 43.25878906 28.67382812 43.25878906 C29.33382812 43.91878906 29.99382812 44.57878906 30.67382812 45.25878906 C30.13811384 48.79450335 30.13811384 48.79450335 28.67382812 50.25878906 C27.03909931 50.34579248 25.40068757 50.36579969 23.76367188 50.35644531 C22.77431641 50.35322266 21.78496094 50.35 20.765625 50.34667969 C19.72470703 50.33830078 18.68378906 50.32992187 17.61132812 50.32128906 C16.56654297 50.31677734 15.52175781 50.31226563 14.4453125 50.30761719 C11.85476153 50.29578819 9.26432254 50.27930596 6.67382812 50.25878906 C6.29249514 48.26738346 5.9605723 46.26599829 5.67382812 44.25878906 C6.16882813 43.76378906 6.16882813 43.76378906 6.67382812 43.25878906 C9.31382813 43.25878906 11.95382813 43.25878906 14.67382812 43.25878906 C14.67382812 31.37878906 14.67382812 19.49878906 14.67382812 7.25878906 C10.05382812 7.25878906 5.43382812 7.25878906 0.67382812 7.25878906 C0.67382812 9.56878906 0.67382812 11.87878906 0.67382812 14.25878906 C-1.70117187 14.88378906 -1.70117187 14.88378906 -4.32617188 15.25878906 C-6.32617188 13.25878906 -6.32617188 13.25878906 -6.59179688 10.72753906 C-6.58664063 9.74785156 -6.58148437 8.76816406 -6.57617188 7.75878906 C-6.58132812 6.77910156 -6.58648438 5.79941406 -6.59179688 4.79003906 C-6.12094677 0.30311449 -4.005114 0.00807771 0 0 Z " fill="#030303" transform="translate(37.326171875,83.7412109375)"/>
<path d="M0 0 C3.7910119 1.44950455 7.3874638 3.15172566 11 5 C11.05057791 12.65377999 11.08568184 20.30751713 11.10986328 27.96142578 C11.11994064 30.56691091 11.1336027 33.17238469 11.15087891 35.77783203 C11.17505102 39.51597899 11.1864656 43.25397685 11.1953125 46.9921875 C11.20563507 48.16304901 11.21595764 49.33391052 11.22659302 50.54025269 C11.22681961 52.161707 11.22681961 52.161707 11.22705078 53.81591797 C11.231492 54.77078094 11.23593323 55.72564392 11.24050903 56.70944214 C11 59 11 59 9 61 C5.98691049 61.17546482 3.06689546 61.23127445 0.0546875 61.1953125 C-0.8303244 61.1924826 -1.7153363 61.18965271 -2.62716675 61.18673706 C-5.45991412 61.1755224 -8.29234784 61.1504157 -11.125 61.125 C-13.04296419 61.11497185 -14.96093333 61.10584572 -16.87890625 61.09765625 C-21.58605876 61.07557889 -26.29297616 61.04104045 -31 61 C-31 60.67 -31 60.34 -31 60 C-25.06 59.67 -19.12 59.34 -13 59 C-13.0309375 56.89625 -13.0309375 56.89625 -13.0625 54.75 C-12.8125 52.25390625 -12.8125 52.25390625 -12 50 C-9.763451 48.49295038 -7.70415873 47.73047512 -5.12890625 46.94921875 C-2.39777709 45.73148593 -2.09705793 44.7337924 -1 42 C-0.67831114 39.90436064 -0.67831114 39.90436064 -0.68115234 37.69042969 C-0.66128265 36.84986023 -0.64141296 36.00929077 -0.62094116 35.14324951 C-0.60361435 33.79616913 -0.60361435 33.79616913 -0.5859375 32.421875 C-0.56657135 31.4953009 -0.5472052 30.56872681 -0.5272522 29.61407471 C-0.46755233 26.65947629 -0.42110932 23.70483871 -0.375 20.75 C-0.3368114 18.74477483 -0.29775915 16.73956591 -0.2578125 14.734375 C-0.1618586 9.82304889 -0.07779197 4.911646 0 0 Z " fill="#F8CC59" transform="translate(157,160)"/>
<path d="M0 0 C6.93 0 13.86 0 21 0 C21.04585026 5.80260515 21.08569366 11.60458475 21.10986328 17.40722656 C21.11993627 19.38218309 21.13359521 21.35712466 21.15087891 23.33203125 C21.17507039 26.16670418 21.18646991 29.00118038 21.1953125 31.8359375 C21.20563507 32.72243988 21.21595764 33.60894226 21.22659302 34.52230835 C21.2269907 36.68285952 21.12272534 38.84293718 21 41 C20.34 41.66 19.68 42.32 19 43 C13.72 43 8.44 43 3 43 C3.33 29.14 3.66 15.28 4 1 C2.68 0.67 1.36 0.34 0 0 Z " fill="#C4EBF9" transform="translate(129,159)"/>
<path d="M0 0 C0.66 0 1.32 0 2 0 C2 29.04 2 58.08 2 88 C-2.11479277 86.35408289 -5.64502361 84.59717848 -9.47265625 82.41015625 C-10.38004799 81.89236855 -10.38004799 81.89236855 -11.30577087 81.36412048 C-12.57819924 80.63697603 -13.84971528 79.90823301 -15.12036133 79.17797852 C-17.05753676 78.06535067 -18.99824657 76.95909208 -20.93945312 75.85351562 C-22.17990372 75.14360684 -23.42014525 74.43333261 -24.66015625 73.72265625 C-25.78043213 73.08078369 -26.90070801 72.43891113 -28.05493164 71.77758789 C-29.0268042 71.19098389 -29.99867676 70.60437988 -31 70 C-31.78270264 69.54254395 -32.56540527 69.08508789 -33.37182617 68.61376953 C-35 67 -35 67 -35.45410156 64.45629883 C-35.4331543 63.46654053 -35.41220703 62.47678223 -35.390625 61.45703125 C-35.37773437 60.38388672 -35.36484375 59.31074219 -35.3515625 58.20507812 C-35.31804687 57.08552734 -35.28453125 55.96597656 -35.25 54.8125 C-35.23195312 53.68134766 -35.21390625 52.55019531 -35.1953125 51.38476562 C-35.14812652 48.58899624 -35.08230595 45.79492028 -35 43 C-34.67 43 -34.34 43 -34 43 C-34.09539062 44.16015625 -34.19078125 45.3203125 -34.2890625 46.515625 C-33.86732198 49.85134271 -33.21809937 50.81861919 -30.59277344 53.00195312 C-27.25047896 55.05089324 -23.84473087 56.93022406 -20.375 58.75 C-19.18476258 59.39972121 -17.99594157 60.05204428 -16.80859375 60.70703125 C-14.60125817 61.91622408 -12.3875356 63.1138845 -10.16552734 64.29589844 C-6.74426133 66.13767206 -3.37356777 68.07224699 0 70 C0 46.9 0 23.8 0 0 Z " fill="#9B909B" transform="translate(196,86)"/>
<path d="M0 0 C30.69 0 61.38 0 93 0 C93.495 2.475 93.495 2.475 94 5 C91.38856642 7.61143358 89.55496761 7.24485651 85.99839783 7.27105713 C85.15781326 7.26700867 84.3172287 7.26296021 83.45117188 7.25878906 C82.56651749 7.2622937 81.6818631 7.26579834 80.770401 7.26940918 C77.83643829 7.27823566 74.90271531 7.27237412 71.96875 7.265625 C69.93615675 7.26697139 67.90356382 7.2689117 65.87097168 7.27142334 C61.6071466 7.27437585 57.34340521 7.27007289 53.07958984 7.26074219 C47.60479827 7.24934761 42.13020277 7.2559064 36.6554184 7.26788712 C32.45707716 7.27510229 28.25878268 7.27281936 24.06044006 7.26763153 C22.041346 7.26629409 20.02224774 7.26794605 18.00315857 7.27259064 C15.18493348 7.27765025 12.36702922 7.26995362 9.54882812 7.25878906 C8.70824356 7.26283752 7.867659 7.26688599 7.00160217 7.27105713 C1.22852792 7.22852792 1.22852792 7.22852792 -1 5 C-0.67 3.35 -0.34 1.7 0 0 Z " fill="#000000" transform="translate(32,170)"/>
<path d="M0 0 C6.97080442 1.5697613 10.9836144 5.8538523 15.046875 11.4609375 C17.89302689 17.40073275 17.91589946 23.49979277 15.796875 29.6484375 C13.48078197 35.12771313 10.46364816 38.82096744 5.12109375 41.671875 C1.27336484 43.13560615 -2.84607368 43.68618712 -6.953125 43.4609375 C-8.953125 41.4609375 -8.953125 41.4609375 -9.265625 38.9609375 C-9.1625 38.1359375 -9.059375 37.3109375 -8.953125 36.4609375 C-6.21263032 34.63394104 -4.60416773 34.02343778 -1.515625 33.2109375 C1.90209008 32.09210895 3.03330955 31.47516468 5.609375 28.7734375 C7.34813045 24.76674016 7.90223514 21.75484543 7.046875 17.4609375 C4.99533385 13.50439385 3.31100441 10.92292473 -0.953125 9.4609375 C-3.28496107 8.78905253 -5.61813642 8.12178333 -7.953125 7.4609375 C-8.953125 6.4609375 -8.953125 6.4609375 -9.203125 4.0234375 C-9.120625 3.1778125 -9.038125 2.3321875 -8.953125 1.4609375 C-5.51401543 -0.83180221 -3.98085616 -0.65379024 0 0 Z " fill="#000000" transform="translate(221.953125,108.5390625)"/>
<path d="M0 0 C0.33 0 0.66 0 1 0 C1 7.59 1 15.18 1 23 C-3.29183178 23.05372251 -7.58299786 23.0935403 -11.875 23.125 C-13.09832031 23.14175781 -14.32164062 23.15851563 -15.58203125 23.17578125 C-17.33193359 23.18544922 -17.33193359 23.18544922 -19.1171875 23.1953125 C-20.19597168 23.20578613 -21.27475586 23.21625977 -22.38623047 23.22705078 C-25 23 -25 23 -27 21 C-27.14551875 18.24678525 -27.18622113 15.62236578 -27.125 12.875 C-27.08375 10.27625 -27.0425 7.6775 -27 5 C-13.635 5.495 -13.635 5.495 0 6 C0 4.02 0 2.04 0 0 Z " fill="#8C7E8C" transform="translate(153,129)"/>
<path d="M0 0 C3.3 0 6.6 0 10 0 C11 1 11 1 11.11352539 4.78540039 C11.11336622 6.47282729 11.10766917 8.16025905 11.09765625 9.84765625 C11.0962413 10.7340831 11.09482635 11.62050995 11.09336853 12.53379822 C11.08775215 15.37673254 11.07519691 18.21958931 11.0625 21.0625 C11.05748711 22.98502491 11.05292384 24.90755104 11.04882812 26.83007812 C11.03777741 31.55341549 11.02050183 36.27669458 11 41 C9.54462432 41.83848804 8.08559627 42.67063934 6.625 43.5 C5.81289062 43.9640625 5.00078125 44.428125 4.1640625 44.90625 C2 46 2 46 0 46 C0 30.82 0 15.64 0 0 Z " fill="#F7CA58" transform="translate(157,54)"/>
<path d="M0 0 C1.02075623 -0.00287018 1.02075623 -0.00287018 2.06213379 -0.00579834 C3.50122446 -0.00715963 4.94032744 -0.00346705 6.37939453 0.00488281 C8.58524087 0.01558372 10.79027281 0.00498628 12.99609375 -0.0078125 C14.39323097 -0.00649089 15.79036768 -0.00392848 17.1875 0 C18.46302734 0.00225586 19.73855469 0.00451172 21.05273438 0.00683594 C24.09375 0.265625 24.09375 0.265625 26.09375 2.265625 C25.76375 3.915625 25.43375 5.565625 25.09375 7.265625 C14.20375 7.265625 3.31375 7.265625 -7.90625 7.265625 C-8.23625 5.615625 -8.56625 3.965625 -8.90625 2.265625 C-6.03758116 -0.60304384 -4.00969387 0.00709142 0 0 Z " fill="#010101" transform="translate(99.90625,83.734375)"/>
<path d="M0 0 C10.89 0 21.78 0 33 0 C33.495 2.475 33.495 2.475 34 5 C31.13133116 7.86866884 29.10344387 7.25853358 25.09375 7.265625 C24.07299377 7.26849518 24.07299377 7.26849518 23.03161621 7.27142334 C21.59252554 7.27278463 20.15342256 7.26909205 18.71435547 7.26074219 C16.50850913 7.25004128 14.30347719 7.26063872 12.09765625 7.2734375 C10.70051903 7.27211589 9.30338232 7.26955348 7.90625 7.265625 C6.63072266 7.26336914 5.35519531 7.26111328 4.04101562 7.25878906 C1 7 1 7 -1 5 C-0.67 3.35 -0.34 1.7 0 0 Z " fill="#010101" transform="translate(92,56)"/>
<path d="M0 0 C0.05386629 2.12472576 0.09273071 4.24983652 0.125 6.375 C0.14820313 7.55835938 0.17140625 8.74171875 0.1953125 9.9609375 C0 13 0 13 -2 15 C-5.0390625 15.1953125 -5.0390625 15.1953125 -8.625 15.125 C-9.81351563 15.10695313 -11.00203125 15.08890625 -12.2265625 15.0703125 C-13.14179688 15.04710937 -14.05703125 15.02390625 -15 15 C-2.5 0 -2.5 0 0 0 Z " fill="#5CCEEC" transform="translate(28,41)"/>
<path d="M0 0 C1.91015625 0.23046875 1.91015625 0.23046875 3.91015625 2.23046875 C3.37444196 5.76618304 3.37444196 5.76618304 1.91015625 7.23046875 C-3.82595486 7.5036169 -3.82595486 7.5036169 -6.08984375 7.23046875 C-6.74984375 6.57046875 -7.40984375 5.91046875 -8.08984375 5.23046875 C-7.24578654 -0.34030882 -5.3755226 0.10731533 0 0 Z " fill="#0A0B0B" transform="translate(76.08984375,55.76953125)"/>
<path d="M0 0 C1.47906892 -0.02689216 2.95827483 -0.04634621 4.4375 -0.0625 C5.26121094 -0.07410156 6.08492187 -0.08570313 6.93359375 -0.09765625 C9 0 9 0 10 1 C10.04063832 2.66617115 10.042721 4.33388095 10 6 C6.98675805 7.50662097 4.31713623 7.17770373 1 7 C0.34 6.34 -0.32 5.68 -1 5 C-0.625 2.375 -0.625 2.375 0 0 Z " fill="#060707" transform="translate(53,56)"/>
</svg>
